<mxfile host="65bd71144e">
    <diagram id="e_-X7SqqBwHwy60dFBqL" name="Page-1">
        <mxGraphModel dx="2671" dy="3740" grid="1" gridSize="10" guides="1" tooltips="1" connect="1" arrows="1" fold="1" page="1" pageScale="1" pageWidth="827" pageHeight="1169" background="none" math="0" shadow="0">
            <root>
                <mxCell id="0"/>
                <mxCell id="1" parent="0"/>
                <mxCell id="13" value="mshs_gpio" style="swimlane;fontStyle=0;childLayout=stackLayout;horizontal=1;startSize=30;horizontalStack=0;resizeParent=1;resizeParentMax=0;resizeLast=0;collapsible=1;marginBottom=0;fontFamily=Courier New;" parent="1" vertex="1">
                    <mxGeometry x="280" y="-980" width="240" height="150" as="geometry"/>
                </mxCell>
                <mxCell id="14" value="numbering" style="text;align=left;verticalAlign=middle;spacingLeft=4;spacingRight=4;overflow=hidden;points=[[0,0.5],[1,0.5]];portConstraint=eastwest;rotatable=0;fontFamily=Courier New;" parent="13" vertex="1">
                    <mxGeometry y="30" width="240" height="30" as="geometry"/>
                </mxCell>
                <mxCell id="15" value="pin_mode" style="text;align=left;verticalAlign=middle;spacingLeft=4;spacingRight=4;overflow=hidden;points=[[0,0.5],[1,0.5]];portConstraint=eastwest;rotatable=0;fontFamily=Courier New;" parent="13" vertex="1">
                    <mxGeometry y="60" width="240" height="30" as="geometry"/>
                </mxCell>
                <mxCell id="16" value="pins : list" style="text;align=left;verticalAlign=middle;spacingLeft=4;spacingRight=4;overflow=hidden;points=[[0,0.5],[1,0.5]];portConstraint=eastwest;rotatable=0;fontFamily=Courier New;" parent="13" vertex="1">
                    <mxGeometry y="90" width="240" height="30" as="geometry"/>
                </mxCell>
                <mxCell id="18" value="setup(pin, pull_up_down, initial)" style="text;align=left;verticalAlign=middle;spacingLeft=4;spacingRight=4;overflow=hidden;points=[[0,0.5],[1,0.5]];portConstraint=eastwest;rotatable=0;strokeColor=default;fontFamily=Courier New;" parent="13" vertex="1">
                    <mxGeometry y="120" width="240" height="30" as="geometry"/>
                </mxCell>
                <mxCell id="60" value="" style="edgeStyle=orthogonalEdgeStyle;html=1;fontColor=#FFFFFF;endArrow=block;endFill=0;exitX=0.5;exitY=0;exitDx=0;exitDy=0;entryX=0;entryY=0.5;entryDx=0;entryDy=0;fontFamily=Courier New;" parent="1" source="19" target="15" edge="1">
                    <mxGeometry relative="1" as="geometry">
                        <mxPoint x="210" y="-770" as="targetPoint"/>
                    </mxGeometry>
                </mxCell>
                <mxCell id="19" value="mshs_input" style="swimlane;fontStyle=0;childLayout=stackLayout;horizontal=1;startSize=30;horizontalStack=0;resizeParent=1;resizeParentMax=0;resizeLast=0;collapsible=1;marginBottom=0;fontFamily=Courier New;" parent="1" vertex="1">
                    <mxGeometry y="-790" width="240" height="90" as="geometry"/>
                </mxCell>
                <mxCell id="20" value="callbacks : list" style="text;align=left;verticalAlign=middle;spacingLeft=4;spacingRight=4;overflow=hidden;points=[[0,0.5],[1,0.5]];portConstraint=eastwest;rotatable=0;fontFamily=Courier New;" parent="19" vertex="1">
                    <mxGeometry y="30" width="240" height="30" as="geometry"/>
                </mxCell>
                <mxCell id="23" value="setup_all(pull_up_down)" style="text;align=left;verticalAlign=middle;spacingLeft=4;spacingRight=4;overflow=hidden;points=[[0,0.5],[1,0.5]];portConstraint=eastwest;rotatable=0;strokeColor=default;fontFamily=Courier New;" parent="19" vertex="1">
                    <mxGeometry y="60" width="240" height="30" as="geometry"/>
                </mxCell>
                <mxCell id="62" style="edgeStyle=none;html=1;fontColor=#FFFFFF;endArrow=block;endFill=0;exitX=0.5;exitY=0;exitDx=0;exitDy=0;fontFamily=Courier New;" parent="1" source="24" target="18" edge="1">
                    <mxGeometry relative="1" as="geometry">
                        <mxPoint x="350" y="-740" as="sourcePoint"/>
                        <mxPoint x="340" y="-780" as="targetPoint"/>
                    </mxGeometry>
                </mxCell>
                <mxCell id="24" value="mshs_output" style="swimlane;fontStyle=0;childLayout=stackLayout;horizontal=1;startSize=30;horizontalStack=0;resizeParent=1;resizeParentMax=0;resizeLast=0;collapsible=1;marginBottom=0;fontFamily=Courier New;" parent="1" vertex="1">
                    <mxGeometry x="280" y="-790" width="240" height="180" as="geometry"/>
                </mxCell>
                <mxCell id="25" value="statuses : list" style="text;align=left;verticalAlign=middle;spacingLeft=4;spacingRight=4;overflow=hidden;points=[[0,0.5],[1,0.5]];portConstraint=eastwest;rotatable=0;strokeColor=default;fontFamily=Courier New;" parent="24" vertex="1">
                    <mxGeometry y="30" width="240" height="30" as="geometry"/>
                </mxCell>
                <mxCell id="28" value="clear_pin(pin)" style="text;align=left;verticalAlign=middle;spacingLeft=4;spacingRight=4;overflow=hidden;points=[[0,0.5],[1,0.5]];portConstraint=eastwest;rotatable=0;fontFamily=Courier New;" parent="24" vertex="1">
                    <mxGeometry y="60" width="240" height="30" as="geometry"/>
                </mxCell>
                <mxCell id="30" value="set_pin(pin)" style="text;align=left;verticalAlign=middle;spacingLeft=4;spacingRight=4;overflow=hidden;points=[[0,0.5],[1,0.5]];portConstraint=eastwest;rotatable=0;fontFamily=Courier New;" parent="24" vertex="1">
                    <mxGeometry y="90" width="240" height="30" as="geometry"/>
                </mxCell>
                <mxCell id="29" value="setup(pin, initial)" style="text;align=left;verticalAlign=middle;spacingLeft=4;spacingRight=4;overflow=hidden;points=[[0,0.5],[1,0.5]];portConstraint=eastwest;rotatable=0;fontFamily=Courier New;" parent="24" vertex="1">
                    <mxGeometry y="120" width="240" height="30" as="geometry"/>
                </mxCell>
                <mxCell id="31" value="setup_all(initial)" style="text;align=left;verticalAlign=middle;spacingLeft=4;spacingRight=4;overflow=hidden;points=[[0,0.5],[1,0.5]];portConstraint=eastwest;rotatable=0;fontFamily=Courier New;" parent="24" vertex="1">
                    <mxGeometry y="150" width="240" height="30" as="geometry"/>
                </mxCell>
                <mxCell id="63" style="edgeStyle=none;html=1;exitX=0.5;exitY=0;exitDx=0;exitDy=0;fontColor=#FFFFFF;endArrow=block;endFill=0;fontFamily=Courier New;" parent="1" source="32" edge="1">
                    <mxGeometry relative="1" as="geometry">
                        <mxPoint x="120" y="-700" as="targetPoint"/>
                    </mxGeometry>
                </mxCell>
                <mxCell id="32" value="mshs_btn" style="swimlane;fontStyle=0;childLayout=stackLayout;horizontal=1;startSize=30;horizontalStack=0;resizeParent=1;resizeParentMax=0;resizeLast=0;collapsible=1;marginBottom=0;fontFamily=Courier New;" parent="1" vertex="1">
                    <mxGeometry y="-660" width="240" height="150" as="geometry"/>
                </mxCell>
                <mxCell id="33" value="events : list" style="text;align=left;verticalAlign=middle;spacingLeft=4;spacingRight=4;overflow=hidden;points=[[0,0.5],[1,0.5]];portConstraint=eastwest;rotatable=0;strokeColor=default;fontFamily=Courier New;" parent="32" vertex="1">
                    <mxGeometry y="30" width="240" height="30" as="geometry"/>
                </mxCell>
                <mxCell id="34" value="add_handler(pin, event)" style="text;align=left;verticalAlign=middle;spacingLeft=4;spacingRight=4;overflow=hidden;points=[[0,0.5],[1,0.5]];portConstraint=eastwest;rotatable=0;fontFamily=Courier New;" parent="32" vertex="1">
                    <mxGeometry y="60" width="240" height="30" as="geometry"/>
                </mxCell>
                <mxCell id="35" value="remove_handler(pin, callback)" style="text;align=left;verticalAlign=middle;spacingLeft=4;spacingRight=4;overflow=hidden;points=[[0,0.5],[1,0.5]];portConstraint=eastwest;rotatable=0;fontFamily=Courier New;" parent="32" vertex="1">
                    <mxGeometry y="90" width="240" height="30" as="geometry"/>
                </mxCell>
                <mxCell id="36" value="remove_handlers(pin)" style="text;align=left;verticalAlign=middle;spacingLeft=4;spacingRight=4;overflow=hidden;points=[[0,0.5],[1,0.5]];portConstraint=eastwest;rotatable=0;fontFamily=Courier New;" parent="32" vertex="1">
                    <mxGeometry y="120" width="240" height="30" as="geometry"/>
                </mxCell>
                <mxCell id="64" value="" style="edgeStyle=none;html=1;fontColor=#FFFFFF;endArrow=block;endFill=0;fontFamily=Courier New;" parent="1" source="37" target="31" edge="1">
                    <mxGeometry relative="1" as="geometry"/>
                </mxCell>
                <mxCell id="37" value="mshs_led" style="swimlane;fontStyle=0;childLayout=stackLayout;horizontal=1;startSize=30;horizontalStack=0;resizeParent=1;resizeParentMax=0;resizeLast=0;collapsible=1;marginBottom=0;fontFamily=Courier New;" parent="1" vertex="1">
                    <mxGeometry x="280" y="-570" width="240" height="210" as="geometry"/>
                </mxCell>
                <mxCell id="43" style="text;align=left;verticalAlign=middle;spacingLeft=4;spacingRight=4;overflow=hidden;points=[[0,0.5],[1,0.5]];portConstraint=eastwest;rotatable=0;strokeColor=default;fontFamily=Courier New;" parent="37" vertex="1">
                    <mxGeometry y="30" width="240" height="30" as="geometry"/>
                </mxCell>
                <mxCell id="38" value="led_flash(led_id, rest, cycles, off)" style="text;align=left;verticalAlign=middle;spacingLeft=4;spacingRight=4;overflow=hidden;points=[[0,0.5],[1,0.5]];portConstraint=eastwest;rotatable=0;fontFamily=Courier New;" parent="37" vertex="1">
                    <mxGeometry y="60" width="240" height="30" as="geometry"/>
                </mxCell>
                <mxCell id="39" value="led_off(led_id)" style="text;align=left;verticalAlign=middle;spacingLeft=4;spacingRight=4;overflow=hidden;points=[[0,0.5],[1,0.5]];portConstraint=eastwest;rotatable=0;fontFamily=Courier New;" parent="37" vertex="1">
                    <mxGeometry y="90" width="240" height="30" as="geometry"/>
                </mxCell>
                <mxCell id="40" value="led_on(led_id)" style="text;align=left;verticalAlign=middle;spacingLeft=4;spacingRight=4;overflow=hidden;points=[[0,0.5],[1,0.5]];portConstraint=eastwest;rotatable=0;fontFamily=Courier New;" parent="37" vertex="1">
                    <mxGeometry y="120" width="240" height="30" as="geometry"/>
                </mxCell>
                <mxCell id="41" value="led_pulse(led_id, rest)" style="text;align=left;verticalAlign=middle;spacingLeft=4;spacingRight=4;overflow=hidden;points=[[0,0.5],[1,0.5]];portConstraint=eastwest;rotatable=0;fontFamily=Courier New;" parent="37" vertex="1">
                    <mxGeometry y="150" width="240" height="30" as="geometry"/>
                </mxCell>
                <mxCell id="42" value="led_toggle(led_id)" style="text;align=left;verticalAlign=middle;spacingLeft=4;spacingRight=4;overflow=hidden;points=[[0,0.5],[1,0.5]];portConstraint=eastwest;rotatable=0;fontFamily=Courier New;" parent="37" vertex="1">
                    <mxGeometry y="180" width="240" height="30" as="geometry"/>
                </mxCell>
                <mxCell id="65" value="" style="edgeStyle=none;html=1;fontColor=#FFFFFF;endArrow=block;endFill=0;exitX=0.5;exitY=0;exitDx=0;exitDy=0;entryX=0.502;entryY=1.031;entryDx=0;entryDy=0;entryPerimeter=0;fontFamily=Courier New;" parent="1" source="44" target="42" edge="1">
                    <mxGeometry relative="1" as="geometry">
                        <mxPoint x="470" y="-320" as="targetPoint"/>
                    </mxGeometry>
                </mxCell>
                <mxCell id="44" value="mshs_rgb" style="swimlane;fontStyle=0;childLayout=stackLayout;horizontal=1;startSize=30;horizontalStack=0;resizeParent=1;resizeParentMax=0;resizeLast=0;collapsible=1;marginBottom=0;fontFamily=Courier New;" parent="1" vertex="1">
                    <mxGeometry x="280" y="-320" width="240" height="520" as="geometry"/>
                </mxCell>
                <mxCell id="45" style="text;align=left;verticalAlign=middle;spacingLeft=4;spacingRight=4;overflow=hidden;points=[[0,0.5],[1,0.5]];portConstraint=eastwest;rotatable=0;strokeColor=default;fontFamily=Courier New;" parent="44" vertex="1">
                    <mxGeometry y="30" width="240" height="30" as="geometry"/>
                </mxCell>
                <mxCell id="46" value="all_off()" style="text;align=left;verticalAlign=middle;spacingLeft=4;spacingRight=4;overflow=hidden;points=[[0,0.5],[1,0.5]];portConstraint=eastwest;rotatable=0;fontFamily=Courier New;" parent="44" vertex="1">
                    <mxGeometry y="60" width="240" height="30" as="geometry"/>
                </mxCell>
                <mxCell id="47" value="blue_flash(rest, cycles)" style="text;align=left;verticalAlign=middle;spacingLeft=4;spacingRight=4;overflow=hidden;points=[[0,0.5],[1,0.5]];portConstraint=eastwest;rotatable=0;fontFamily=Courier New;" parent="44" vertex="1">
                    <mxGeometry y="90" width="240" height="30" as="geometry"/>
                </mxCell>
                <mxCell id="48" value="blue_off()" style="text;align=left;verticalAlign=middle;spacingLeft=4;spacingRight=4;overflow=hidden;points=[[0,0.5],[1,0.5]];portConstraint=eastwest;rotatable=0;fontFamily=Courier New;" parent="44" vertex="1">
                    <mxGeometry y="120" width="240" height="30" as="geometry"/>
                </mxCell>
                <mxCell id="49" value="blue_on()" style="text;align=left;verticalAlign=middle;spacingLeft=4;spacingRight=4;overflow=hidden;points=[[0,0.5],[1,0.5]];portConstraint=eastwest;rotatable=0;fontFamily=Courier New;" parent="44" vertex="1">
                    <mxGeometry y="150" width="240" height="30" as="geometry"/>
                </mxCell>
                <mxCell id="50" value="blue_pulse(rest)" style="text;align=left;verticalAlign=middle;spacingLeft=4;spacingRight=4;overflow=hidden;points=[[0,0.5],[1,0.5]];portConstraint=eastwest;rotatable=0;fontFamily=Courier New;" parent="44" vertex="1">
                    <mxGeometry y="180" width="240" height="30" as="geometry"/>
                </mxCell>
                <mxCell id="58" value="green_flash(rest, cycles)" style="text;align=left;verticalAlign=middle;spacingLeft=4;spacingRight=4;overflow=hidden;points=[[0,0.5],[1,0.5]];portConstraint=eastwest;rotatable=0;fontFamily=Courier New;" parent="44" vertex="1">
                    <mxGeometry y="210" width="240" height="30" as="geometry"/>
                </mxCell>
                <mxCell id="57" value="green_off()" style="text;align=left;verticalAlign=middle;spacingLeft=4;spacingRight=4;overflow=hidden;points=[[0,0.5],[1,0.5]];portConstraint=eastwest;rotatable=0;fontFamily=Courier New;" parent="44" vertex="1">
                    <mxGeometry y="240" width="240" height="30" as="geometry"/>
                </mxCell>
                <mxCell id="56" value="green_on()" style="text;align=left;verticalAlign=middle;spacingLeft=4;spacingRight=4;overflow=hidden;points=[[0,0.5],[1,0.5]];portConstraint=eastwest;rotatable=0;fontFamily=Courier New;" parent="44" vertex="1">
                    <mxGeometry y="270" width="240" height="30" as="geometry"/>
                </mxCell>
                <mxCell id="55" value="green_pulse(rest)" style="text;align=left;verticalAlign=middle;spacingLeft=4;spacingRight=4;overflow=hidden;points=[[0,0.5],[1,0.5]];portConstraint=eastwest;rotatable=0;fontFamily=Courier New;" parent="44" vertex="1">
                    <mxGeometry y="300" width="240" height="30" as="geometry"/>
                </mxCell>
                <mxCell id="54" value="red_flash(rest, cycles)" style="text;align=left;verticalAlign=middle;spacingLeft=4;spacingRight=4;overflow=hidden;points=[[0,0.5],[1,0.5]];portConstraint=eastwest;rotatable=0;fontFamily=Courier New;" parent="44" vertex="1">
                    <mxGeometry y="330" width="240" height="30" as="geometry"/>
                </mxCell>
                <mxCell id="53" value="red_off()" style="text;align=left;verticalAlign=middle;spacingLeft=4;spacingRight=4;overflow=hidden;points=[[0,0.5],[1,0.5]];portConstraint=eastwest;rotatable=0;fontFamily=Courier New;" parent="44" vertex="1">
                    <mxGeometry y="360" width="240" height="30" as="geometry"/>
                </mxCell>
                <mxCell id="52" value="red_on()" style="text;align=left;verticalAlign=middle;spacingLeft=4;spacingRight=4;overflow=hidden;points=[[0,0.5],[1,0.5]];portConstraint=eastwest;rotatable=0;fontFamily=Courier New;" parent="44" vertex="1">
                    <mxGeometry y="390" width="240" height="30" as="geometry"/>
                </mxCell>
                <mxCell id="51" value="red_pulse(rest)" style="text;align=left;verticalAlign=top;spacingLeft=4;spacingRight=4;overflow=hidden;points=[[0,0.5],[1,0.5]];portConstraint=eastwest;rotatable=0;fontFamily=Courier New;" parent="44" vertex="1">
                    <mxGeometry y="420" width="240" height="100" as="geometry"/>
                </mxCell>
                <mxCell id="66" value="mshs_mqtt_client_handler" style="swimlane;fontStyle=0;childLayout=stackLayout;horizontal=1;startSize=30;horizontalStack=0;resizeParent=1;resizeParentMax=0;resizeLast=0;collapsible=1;marginBottom=0;fontFamily=Courier New;" parent="1" vertex="1">
                    <mxGeometry x="560" y="-980" width="320" height="620" as="geometry"/>
                </mxCell>
                <mxCell id="67" value="broker_ip&#10;&#10;clients : dict&#10;&#10;port&#10;&#10;topics" style="text;align=left;verticalAlign=middle;spacingLeft=4;spacingRight=4;overflow=hidden;points=[[0,0.5],[1,0.5]];portConstraint=eastwest;rotatable=0;fontFamily=Courier New;" parent="66" vertex="1">
                    <mxGeometry y="30" width="320" height="120" as="geometry"/>
                </mxCell>
                <mxCell id="68" value="add_client()&#10;&#10;add_topic(topic)&#10;&#10;connect(username)&#10;&#10;disconnect(username)&#10;&#10;loop(username)&#10;&#10;on_connect(client, userdata, flags, rc)&#10;&#10;on_disconnect(client, userdata, rc)&#10;&#10;on_message(client, userdata, msg)&#10;&#10;publish(topic, payload, qos, retain, user)&#10;&#10;register_on_connect(callback, username)&#10;&#10;register_on_disconnect(callback, username)&#10;&#10;register_on_message(callback, username)&#10;&#10;start(username)&#10;&#10;stop(username)&#10;&#10;subscribe(topic, username)&#10;&#10;unsubscribe(topic, username)" style="text;align=left;verticalAlign=middle;spacingLeft=4;spacingRight=4;overflow=hidden;points=[[0,0.5],[1,0.5]];portConstraint=eastwest;rotatable=0;strokeColor=default;fontFamily=Courier New;" parent="66" vertex="1">
                    <mxGeometry y="150" width="320" height="470" as="geometry"/>
                </mxCell>
                <mxCell id="69" value="" style="edgeStyle=none;html=1;endArrow=block;endFill=0;fontFamily=Courier New;" parent="1" source="70" target="68" edge="1">
                    <mxGeometry relative="1" as="geometry"/>
                </mxCell>
                <mxCell id="70" value="mshs_mqtt_action_handler" style="swimlane;fontStyle=0;childLayout=stackLayout;horizontal=1;startSize=30;horizontalStack=0;resizeParent=1;resizeParentMax=0;resizeLast=0;collapsible=1;marginBottom=0;fontFamily=Courier New;" parent="1" vertex="1">
                    <mxGeometry x="560" y="-320" width="320" height="220" as="geometry"/>
                </mxCell>
                <mxCell id="71" value="last_msgs : dict" style="text;align=left;verticalAlign=middle;spacingLeft=4;spacingRight=4;overflow=hidden;points=[[0,0.5],[1,0.5]];portConstraint=eastwest;rotatable=0;fontFamily=Courier New;" parent="70" vertex="1">
                    <mxGeometry y="30" width="320" height="40" as="geometry"/>
                </mxCell>
                <mxCell id="72" value="generate_credentials(i)&#10;&#10;generate_username(i)&#10;&#10;on_message(client, userdata, msg)&#10;&#10;revoke_access()&#10;&#10;save_credentials()" style="text;align=left;verticalAlign=middle;spacingLeft=4;spacingRight=4;overflow=hidden;points=[[0,0.5],[1,0.5]];portConstraint=eastwest;rotatable=0;strokeColor=default;fontFamily=Courier New;" parent="70" vertex="1">
                    <mxGeometry y="70" width="320" height="150" as="geometry"/>
                </mxCell>
                <mxCell id="73" value="mshs_rfid" style="swimlane;fontStyle=0;childLayout=stackLayout;horizontal=1;startSize=30;horizontalStack=0;resizeParent=1;resizeParentMax=0;resizeLast=0;collapsible=1;marginBottom=0;fontFamily=Courier New;" parent="1" vertex="1">
                    <mxGeometry y="-470" width="240" height="240" as="geometry"/>
                </mxCell>
                <mxCell id="74" value="led&#10;&#10;reader" style="text;align=left;verticalAlign=middle;spacingLeft=4;spacingRight=4;overflow=hidden;points=[[0,0.5],[1,0.5]];portConstraint=eastwest;rotatable=0;fontFamily=Courier New;" parent="73" vertex="1">
                    <mxGeometry y="30" width="240" height="60" as="geometry"/>
                </mxCell>
                <mxCell id="75" value="break_down_text(text)&#10;&#10;parse_lock_bytes(buf, arr)&#10;&#10;print_data_readable(data, init)&#10;&#10;read(blocks)&#10;&#10;write(text, block_initial)" style="text;align=left;verticalAlign=middle;spacingLeft=4;spacingRight=4;overflow=hidden;points=[[0,0.5],[1,0.5]];portConstraint=eastwest;rotatable=0;strokeColor=default;fontFamily=Courier New;" parent="73" vertex="1">
                    <mxGeometry y="90" width="240" height="150" as="geometry"/>
                </mxCell>
                <mxCell id="76" value="mshs_helper" style="swimlane;fontStyle=0;childLayout=stackLayout;horizontal=1;startSize=30;horizontalStack=0;resizeParent=1;resizeParentMax=0;resizeLast=0;collapsible=1;marginBottom=0;fontFamily=Courier New;" parent="1" vertex="1">
                    <mxGeometry y="-190" width="240" height="390" as="geometry"/>
                </mxCell>
                <mxCell id="77" value="mosquitto_config : str&#10;&#10;passwordfile : str&#10;&#10;pid_file : str&#10;&#10;pid_path : str&#10;&#10;wifi_details : str" style="text;align=left;verticalAlign=middle;spacingLeft=4;spacingRight=4;overflow=hidden;points=[[0,0.5],[1,0.5]];portConstraint=eastwest;rotatable=0;fontFamily=Courier New;" parent="76" vertex="1">
                    <mxGeometry y="30" width="240" height="150" as="geometry"/>
                </mxCell>
                <mxCell id="80" value="debug(msg)&#10;&#10;display_message(msg)&#10;&#10;display_message_hex(msg)&#10;&#10;get_ip()&#10;&#10;get_mqtt_users()&#10;&#10;get_port()&#10;&#10;get_wifi_credentials()" style="text;align=left;verticalAlign=middle;spacingLeft=4;spacingRight=4;overflow=hidden;points=[[0,0.5],[1,0.5]];portConstraint=eastwest;rotatable=0;strokeColor=default;fontFamily=Courier New;" parent="76" vertex="1">
                    <mxGeometry y="180" width="240" height="210" as="geometry"/>
                </mxCell>
                <mxCell id="85" value="mshs_issue_credentials" style="swimlane;fontStyle=0;childLayout=stackLayout;horizontal=1;startSize=30;horizontalStack=0;resizeParent=1;resizeParentMax=0;resizeLast=0;collapsible=1;marginBottom=0;fontFamily=Courier New;" parent="1" vertex="1">
                    <mxGeometry y="-1440" width="400" height="400" as="geometry"/>
                </mxCell>
                <mxCell id="86" value="btn : Miro_btn&#10;&#10;rgb : Miro_rgb&#10;&#10;rc : MFRC522&#10;&#10;rfid : Miro_rfid&#10;&#10;mqtt : Miro_mqtt_action_handler&#10;&#10;is_busy" style="text;align=left;verticalAlign=middle;spacingLeft=4;spacingRight=4;overflow=hidden;points=[[0,0.5],[1,0.5]];portConstraint=eastwest;rotatable=0;fontFamily=Courier New;" parent="85" vertex="1">
                    <mxGeometry y="30" width="400" height="170" as="geometry"/>
                </mxCell>
                <mxCell id="87" value="initialize_context(btn, rgb, broker, port)&#10;&#10;notify_OK(msg, pulse)&#10;&#10;notify_NOK(msg, pulse)&#10;&#10;setup(args)&#10;&#10;start_listener()&#10;&#10;write_creds_to_tag(ctx)&#10;&#10;main()" style="text;align=left;verticalAlign=middle;spacingLeft=4;spacingRight=4;overflow=hidden;points=[[0,0.5],[1,0.5]];portConstraint=eastwest;rotatable=0;strokeColor=default;fontFamily=Courier New;" parent="85" vertex="1">
                    <mxGeometry y="200" width="400" height="200" as="geometry"/>
                </mxCell>
                <mxCell id="94" value="" style="edgeStyle=elbowEdgeStyle;html=1;exitX=0;exitY=0.5;exitDx=0;exitDy=0;endArrow=diamond;endFill=0;fontFamily=Courier New;" parent="1" source="89" target="86" edge="1">
                    <mxGeometry relative="1" as="geometry">
                        <mxPoint x="300" y="-1400" as="targetPoint"/>
                        <Array as="points">
                            <mxPoint x="320" y="-1370"/>
                            <mxPoint x="380" y="-1320"/>
                        </Array>
                    </mxGeometry>
                </mxCell>
                <mxCell id="89" value="mshs_btn" style="rounded=0;whiteSpace=wrap;html=1;fontFamily=Courier New;" parent="1" vertex="1">
                    <mxGeometry x="560" y="-1395" width="320" height="30" as="geometry"/>
                </mxCell>
                <mxCell id="95" value="" style="edgeStyle=elbowEdgeStyle;html=1;exitX=0;exitY=0.5;exitDx=0;exitDy=0;endArrow=diamond;endFill=0;fontFamily=Courier New;" parent="1" source="90" target="86" edge="1">
                    <mxGeometry relative="1" as="geometry">
                        <mxPoint x="310" y="-1350" as="targetPoint"/>
                        <Array as="points">
                            <mxPoint x="320" y="-1340"/>
                            <mxPoint x="380" y="-1320"/>
                            <mxPoint x="380" y="-1315"/>
                        </Array>
                    </mxGeometry>
                </mxCell>
                <mxCell id="90" value="mshs_rgb" style="rounded=0;whiteSpace=wrap;html=1;fontFamily=Courier New;" parent="1" vertex="1">
                    <mxGeometry x="560" y="-1355" width="320" height="30" as="geometry"/>
                </mxCell>
                <mxCell id="96" value="" style="edgeStyle=elbowEdgeStyle;html=1;exitX=0;exitY=0.5;exitDx=0;exitDy=0;endArrow=diamond;endFill=0;fontFamily=Courier New;" parent="1" source="91" target="86" edge="1">
                    <mxGeometry relative="1" as="geometry">
                        <mxPoint x="280" y="-1315" as="targetPoint"/>
                        <Array as="points">
                            <mxPoint x="330" y="-1300"/>
                        </Array>
                    </mxGeometry>
                </mxCell>
                <mxCell id="91" value="mshs_rfid" style="rounded=0;whiteSpace=wrap;html=1;fontFamily=Courier New;" parent="1" vertex="1">
                    <mxGeometry x="560" y="-1315" width="320" height="30" as="geometry"/>
                </mxCell>
                <mxCell id="97" value="" style="html=1;exitX=0;exitY=0.5;exitDx=0;exitDy=0;endArrow=diamond;endFill=0;fontFamily=Courier New;entryX=1;entryY=0.882;entryDx=0;entryDy=0;entryPerimeter=0;" parent="1" source="92" target="86" edge="1">
                    <mxGeometry relative="1" as="geometry">
                        <mxPoint x="320" y="-1320" as="targetPoint"/>
                    </mxGeometry>
                </mxCell>
                <mxCell id="92" value="mshs_mqtt_action_handler" style="rounded=0;whiteSpace=wrap;html=1;fontFamily=Courier New;" parent="1" vertex="1">
                    <mxGeometry x="560" y="-1275" width="320" height="30" as="geometry"/>
                </mxCell>
                <mxCell id="98" value="" style="edgeStyle=none;html=1;endArrow=open;endFill=0;dashed=1;fontFamily=Courier New;entryX=1;entryY=0.036;entryDx=0;entryDy=0;entryPerimeter=0;" parent="1" source="93" target="85" edge="1">
                    <mxGeometry relative="1" as="geometry">
                        <mxPoint x="400" y="-1425" as="targetPoint"/>
                    </mxGeometry>
                </mxCell>
                <mxCell id="93" value="mshs_helper" style="rounded=0;whiteSpace=wrap;html=1;fontFamily=Courier New;" parent="1" vertex="1">
                    <mxGeometry x="560" y="-1440" width="320" height="30" as="geometry"/>
                </mxCell>
                <mxCell id="104" value="" style="edgeStyle=none;html=1;endArrow=open;endFill=0;dashed=1;" edge="1" parent="1" source="99" target="72">
                    <mxGeometry relative="1" as="geometry"/>
                </mxCell>
                <mxCell id="99" value="mshs_dash" style="swimlane;fontStyle=0;childLayout=stackLayout;horizontal=1;startSize=30;horizontalStack=0;resizeParent=1;resizeParentMax=0;resizeLast=0;collapsible=1;marginBottom=0;fontFamily=Courier New;" vertex="1" parent="1">
                    <mxGeometry x="560" y="-60" width="320" height="260" as="geometry"/>
                </mxCell>
                <mxCell id="100" value="" style="text;align=left;verticalAlign=middle;spacingLeft=4;spacingRight=4;overflow=hidden;points=[[0,0.5],[1,0.5]];portConstraint=eastwest;rotatable=0;strokeColor=default;fontFamily=Courier New;" vertex="1" parent="99">
                    <mxGeometry y="30" width="320" height="30" as="geometry"/>
                </mxCell>
                <mxCell id="101" value="upload_to_dashboard(field, value)" style="text;align=left;verticalAlign=top;spacingLeft=4;spacingRight=4;overflow=hidden;points=[[0,0.5],[1,0.5]];portConstraint=eastwest;rotatable=0;fontFamily=Courier New;spacingTop=4;" vertex="1" parent="99">
                    <mxGeometry y="60" width="320" height="200" as="geometry"/>
                </mxCell>
                <mxCell id="106" style="edgeStyle=orthogonalEdgeStyle;html=1;exitX=0;exitY=0.5;exitDx=0;exitDy=0;dashed=1;endArrow=open;endFill=0;" edge="1" parent="1" source="105">
                    <mxGeometry relative="1" as="geometry">
                        <mxPoint x="620" y="-1245" as="targetPoint"/>
                        <Array as="points">
                            <mxPoint x="620" y="-1215"/>
                        </Array>
                    </mxGeometry>
                </mxCell>
                <mxCell id="105" value="mshs_dash" style="rounded=0;whiteSpace=wrap;html=1;fontFamily=Courier New;" vertex="1" parent="1">
                    <mxGeometry x="680" y="-1230" width="200" height="30" as="geometry"/>
                </mxCell>
            </root>
        </mxGraphModel>
    </diagram>
</mxfile>